<svg width="274" height="67" viewBox="0 0 274 67" fill="none" xmlns="http://www.w3.org/2000/svg">
<path d="M7.17285 47.2139L8.23242 46.6387C8.31315 46.8203 8.4847 47.1432 8.74707 47.6074C9.02962 48.0716 9.45345 48.5459 10.0186 49.0303C10.5837 49.5146 11.3304 49.9385 12.2588 50.3018C13.1872 50.665 14.3678 50.8467 15.8008 50.8467C17.597 50.8467 19.4033 50.3522 21.2197 49.3633C23.0361 48.3945 24.681 46.891 26.1543 44.8525C27.6276 42.8141 28.8184 40.2409 29.7266 37.1328C30.6549 34.0046 31.1191 30.291 31.1191 25.9922C31.1191 24.4785 30.9779 22.9749 30.6953 21.4814C30.4329 19.9678 30.0192 18.5247 29.4541 17.1523C28.9092 15.7799 28.2331 14.5085 27.4258 13.3379C26.6185 12.1471 25.68 11.1178 24.6104 10.25C23.5407 9.38216 22.3398 8.70605 21.0078 8.22168C19.696 7.71712 18.263 7.46484 16.709 7.46484C15.3366 7.46484 13.8835 7.7373 12.3496 8.28223C10.8158 8.80697 9.40299 9.63444 8.11133 10.7646C6.83984 11.8747 5.78027 13.3076 4.93262 15.0635C4.10514 16.7992 3.69141 18.8779 3.69141 21.2998C3.69141 23.2171 3.87305 24.8822 4.23633 26.2949C4.61979 27.7077 5.11426 28.9287 5.71973 29.958C6.34538 30.9671 7.06185 31.8047 7.86914 32.4707C8.69661 33.1165 9.55436 33.6312 10.4424 34.0146C11.3304 34.3981 12.2285 34.6706 13.1367 34.832C14.0449 34.9733 14.8926 35.0439 15.6797 35.0439C16.7897 35.0439 17.819 34.8825 18.7676 34.5596C19.7363 34.2367 20.584 33.8734 21.3105 33.4697C22.0573 33.0459 22.6729 32.6423 23.1572 32.2588C23.6416 31.8551 23.9746 31.5827 24.1562 31.4414L24.9736 32.3193C23.3187 33.6917 21.6335 34.721 19.918 35.4072C18.2025 36.0732 16.3154 36.4062 14.2568 36.4062C12.501 36.4062 10.7956 36.1439 9.14062 35.6191C7.48568 35.0742 6.01237 34.2266 4.7207 33.0762C3.44922 31.9056 2.41992 30.4121 1.63281 28.5957C0.865885 26.7793 0.482422 24.5895 0.482422 22.0264C0.482422 20.4925 0.694336 19.0394 1.11816 17.667C1.56217 16.2744 2.15755 14.9928 2.9043 13.8223C3.67122 12.6315 4.56934 11.5719 5.59863 10.6436C6.62793 9.69499 7.73796 8.8877 8.92871 8.22168C10.1195 7.55566 11.3607 7.05111 12.6523 6.70801C13.944 6.34473 15.2357 6.16309 16.5273 6.16309C17.597 6.16309 18.7878 6.27409 20.0996 6.49609C21.4316 6.69792 22.7637 7.09147 24.0957 7.67676C25.4479 8.24186 26.7598 9.03906 28.0312 10.0684C29.3027 11.0775 30.4329 12.3792 31.4219 13.9736C32.4108 15.5479 33.1979 17.4652 33.7832 19.7256C34.3887 21.9658 34.6914 24.6097 34.6914 27.6572C34.6914 30.1598 34.429 32.501 33.9043 34.6807C33.3997 36.8604 32.7035 38.8584 31.8154 40.6748C30.9476 42.4912 29.9082 44.1159 28.6973 45.5488C27.5065 46.9616 26.2249 48.1523 24.8525 49.1211C23.4801 50.11 22.0472 50.8568 20.5537 51.3613C19.0804 51.8861 17.6172 52.1484 16.1641 52.1484C15.377 52.1484 14.5495 52.0778 13.6816 51.9365C12.8138 51.7952 11.9661 51.543 11.1387 51.1797C10.3314 50.8164 9.57454 50.3118 8.86816 49.666C8.18197 49.0404 7.61686 48.223 7.17285 47.2139ZM38.8086 34.1963C39.1113 33.4092 39.4342 32.6624 39.7773 31.9561C40.1406 31.2295 40.5241 30.5938 40.9277 30.0488C41.3314 29.5039 41.7653 29.07 42.2295 28.7471C42.7139 28.404 43.2487 28.2324 43.834 28.2324C44.1165 28.2324 44.4395 28.293 44.8027 28.4141C45.166 28.5352 45.5091 28.7773 45.832 29.1406C46.1751 29.5039 46.4577 30.0286 46.6797 30.7148C46.9017 31.401 47.0127 32.3092 47.0127 33.4395C47.0127 34.0247 46.9824 34.6706 46.9219 35.377C46.8613 36.0833 46.8008 36.7796 46.7402 37.4658C47.3659 36.1338 47.9814 35.0137 48.5869 34.1055C49.2126 33.1771 49.818 32.4404 50.4033 31.8955C51.0088 31.3304 51.6042 30.9268 52.1895 30.6846C52.7747 30.4222 53.36 30.291 53.9453 30.291C54.2077 30.291 54.5104 30.3516 54.8535 30.4727C55.2168 30.5938 55.5498 30.8057 55.8525 31.1084C56.1755 31.4111 56.4378 31.8249 56.6396 32.3496C56.8617 32.8743 56.9727 33.5505 56.9727 34.3779C56.9727 35.0439 56.9222 35.71 56.8213 36.376C56.7204 37.042 56.6094 37.6878 56.4883 38.3135C56.3672 38.9391 56.2562 39.5345 56.1553 40.0996C56.0544 40.6445 56.0039 41.1289 56.0039 41.5527C56.0039 42.5618 56.1855 43.3389 56.5488 43.8838C56.9121 44.4085 57.4671 44.6709 58.2139 44.6709C58.8193 44.6709 59.3945 44.4489 59.9395 44.0049C60.4844 43.5407 60.9889 42.9554 61.4531 42.249C61.9375 41.5426 62.3714 40.7656 62.7549 39.918C63.1585 39.0703 63.5016 38.263 63.7842 37.4961C64.0869 36.709 64.3392 36.0228 64.541 35.4375C64.7428 34.832 64.8841 34.4183 64.9648 34.1963L66.1455 34.499C65.863 35.2054 65.5602 35.9925 65.2373 36.8604C64.9346 37.708 64.5915 38.5658 64.208 39.4336C63.8245 40.3014 63.4108 41.1491 62.9668 41.9766C62.5228 42.7839 62.0283 43.5003 61.4834 44.126C60.9385 44.7516 60.3431 45.2562 59.6973 45.6396C59.0716 46.0231 58.3753 46.2148 57.6084 46.2148C56.9626 46.2148 56.3975 46.0938 55.9131 45.8516C55.4489 45.5892 55.0553 45.2461 54.7324 44.8223C54.4095 44.3984 54.1673 43.8939 54.0059 43.3086C53.8444 42.7233 53.7637 42.0977 53.7637 41.4316C53.7637 40.6849 53.8242 39.918 53.9453 39.1309C54.0866 38.3438 54.2279 37.5869 54.3691 36.8604C54.5306 36.1338 54.6719 35.4678 54.793 34.8623C54.9342 34.2367 55.0049 33.722 55.0049 33.3184C55.0049 32.6927 54.8838 32.2285 54.6416 31.9258C54.3994 31.6029 54.0664 31.4414 53.6426 31.4414C53.0573 31.4414 52.4821 31.6533 51.917 32.0771C51.3721 32.501 50.8372 33.0661 50.3125 33.7725C49.8079 34.4788 49.3236 35.2861 48.8594 36.1943C48.3952 37.1025 47.9613 38.041 47.5576 39.0098C47.1742 39.9583 46.8109 40.9069 46.4678 41.8555C46.1449 42.804 45.8623 43.6618 45.6201 44.4287C45.3779 45.1956 45.166 45.8516 44.9844 46.3965C44.8229 46.9212 44.7119 47.2542 44.6514 47.3955L42.8955 47.0928C43.1377 45.902 43.3597 44.6507 43.5615 43.3389C43.7633 42.0068 43.9349 40.7051 44.0762 39.4336C44.2376 38.1419 44.3587 36.9108 44.4395 35.7402C44.5404 34.5697 44.5908 33.5303 44.5908 32.6221C44.5908 31.391 44.5101 30.5635 44.3486 30.1396C44.1872 29.6956 43.8945 29.4736 43.4707 29.4736C43.1074 29.4736 42.7643 29.6149 42.4414 29.8975C42.1185 30.1598 41.8158 30.5231 41.5332 30.9873C41.2708 31.4313 41.0085 31.9561 40.7461 32.5615C40.4837 33.167 40.2314 33.8128 39.9893 34.499L38.8086 34.1963ZM82.8867 45.8516C81.6152 45.8516 80.5658 45.3369 79.7383 44.3076C78.9108 43.2783 78.4971 41.7243 78.4971 39.6455V39.585C77.8512 40.8564 77.0944 42.027 76.2266 43.0967C75.3789 44.1462 74.4001 44.8929 73.29 45.3369C73.613 46.1846 73.9056 47.1029 74.168 48.0918C74.4303 49.0605 74.6523 50.0596 74.834 51.0889C75.0358 52.1182 75.1872 53.1475 75.2881 54.1768C75.389 55.2061 75.4395 56.2051 75.4395 57.1738C75.4395 58.4655 75.3285 59.6663 75.1064 60.7764C74.9046 61.8864 74.5918 62.8451 74.168 63.6523C73.7643 64.4798 73.2497 65.1257 72.624 65.5898C72.0186 66.054 71.3021 66.2861 70.4746 66.2861C69.3646 66.2861 68.416 66.0137 67.6289 65.4688C66.862 64.944 66.2161 64.2376 65.6914 63.3496C65.1667 62.4616 64.7529 61.4525 64.4502 60.3223C64.1475 59.2122 63.9154 58.0719 63.7539 56.9014C63.6126 55.7308 63.5218 54.5804 63.4814 53.4502C63.4411 52.3402 63.4209 51.3512 63.4209 50.4834C63.4209 48.4854 63.5117 46.2451 63.6934 43.7627C63.875 41.2803 64.1172 38.7373 64.4199 36.1338C64.7227 33.5303 65.0557 30.957 65.4189 28.4141C65.8024 25.8509 66.1758 23.4896 66.5391 21.3301C66.9225 19.1504 67.2858 17.2533 67.6289 15.6387C67.972 14.0241 68.2646 12.8636 68.5068 12.1572C68.6683 11.6527 68.8802 11.138 69.1426 10.6133C69.4251 10.0885 69.7581 9.61426 70.1416 9.19043C70.5251 8.7666 70.959 8.4235 71.4434 8.16113C71.9479 7.89876 72.5231 7.76758 73.1689 7.76758C74.279 7.76758 75.1569 8.13086 75.8027 8.85742C76.4688 9.58398 76.8018 10.583 76.8018 11.8545C76.8018 13.3883 76.5192 15.0231 75.9541 16.7588C75.4092 18.4945 74.6927 20.2907 73.8047 22.1475C72.9167 24.0042 71.9076 25.9014 70.7773 27.8389C69.6673 29.7562 68.5573 31.6634 67.4473 33.5605C67.2253 35.4375 67.0133 37.3044 66.8115 39.1611C66.6299 41.0179 66.4684 42.7839 66.3271 44.459C66.2061 46.1139 66.1051 47.6377 66.0244 49.0303C65.9437 50.4229 65.9033 51.5934 65.9033 52.542C65.9033 54.4795 65.9941 56.2152 66.1758 57.749C66.3776 59.3031 66.6702 60.6149 67.0537 61.6846C67.4574 62.7744 67.9417 63.6019 68.5068 64.167C69.0921 64.7523 69.7783 65.0449 70.5654 65.0449C71.0094 65.0449 71.3828 64.9036 71.6855 64.6211C71.9883 64.3385 72.2406 63.9753 72.4424 63.5312C72.6442 63.0872 72.7956 62.5827 72.8965 62.0176C72.9974 61.4525 73.068 60.8874 73.1084 60.3223C73.1689 59.7572 73.1992 59.2223 73.1992 58.7178C73.2194 58.2132 73.2295 57.7894 73.2295 57.4463C73.2295 55.1859 73.0781 53.0264 72.7754 50.9678C72.4727 48.9294 72.0993 47.1735 71.6553 45.7002H71.4131C70.9287 45.7002 70.4645 45.6396 70.0205 45.5186C69.5967 45.3773 69.2132 45.1855 68.8701 44.9434C68.527 44.7012 68.2546 44.4186 68.0527 44.0957C67.8509 43.7728 67.75 43.4196 67.75 43.0361C67.75 42.4912 67.9115 42.027 68.2344 41.6436C68.5775 41.2601 69.0013 41.0684 69.5059 41.0684C70.1315 41.0684 70.7269 41.3711 71.292 41.9766C71.8571 42.5618 72.3717 43.349 72.8359 44.3379C73.623 44.0352 74.3395 43.5104 74.9854 42.7637C75.6312 41.9967 76.2165 41.1491 76.7412 40.2207C77.2861 39.2923 77.7604 38.3337 78.1641 37.3447C78.5677 36.3558 78.9209 35.4678 79.2236 34.6807C79.5062 33.5908 79.8896 32.4202 80.374 31.1689C80.8786 29.8975 81.4941 28.5654 82.2207 27.1729L83.3105 27.4756C83.1895 28.0003 82.9977 28.7168 82.7354 29.625C82.473 30.5332 82.2005 31.5524 81.918 32.6826C81.6556 33.7926 81.4235 34.9632 81.2217 36.1943C81.0199 37.4053 80.9189 38.5758 80.9189 39.7061C80.9189 40.6546 80.9795 41.4316 81.1006 42.0371C81.2419 42.6224 81.4336 43.0866 81.6758 43.4297C81.918 43.7526 82.1904 43.9746 82.4932 44.0957C82.8161 44.2168 83.1592 44.2773 83.5225 44.2773C84.0876 44.2773 84.6325 44.0957 85.1572 43.7324C85.7021 43.3691 86.2067 42.8949 86.6709 42.3096C87.1553 41.7041 87.5993 41.0381 88.0029 40.3115C88.4066 39.5648 88.7699 38.818 89.0928 38.0713C89.4359 37.3245 89.7386 36.6182 90.001 35.9521C90.2633 35.266 90.4753 34.6807 90.6367 34.1963L91.8174 34.499C91.5954 35.1045 91.333 35.8109 91.0303 36.6182C90.7477 37.4053 90.4147 38.2227 90.0312 39.0703C89.668 39.918 89.2542 40.7454 88.79 41.5527C88.3258 42.36 87.8011 43.0866 87.2158 43.7324C86.6305 44.3581 85.9746 44.8727 85.248 45.2764C84.5417 45.6598 83.7546 45.8516 82.8867 45.8516ZM69.9902 14.3369C69.8893 14.8617 69.748 15.6589 69.5664 16.7285C69.4049 17.778 69.2233 19.0293 69.0215 20.4824C68.8398 21.9154 68.638 23.5098 68.416 25.2656C68.194 27.0013 67.972 28.7975 67.75 30.6543C68.86 28.7572 69.8893 26.9508 70.8379 25.2354C71.7865 23.4997 72.6038 21.8548 73.29 20.3008C73.9964 18.7266 74.5514 17.2533 74.9551 15.8809C75.3587 14.4883 75.5605 13.1663 75.5605 11.915C75.5605 11.1077 75.3789 10.4115 75.0156 9.82617C74.6725 9.24089 74.0973 8.94824 73.29 8.94824C72.7048 8.94824 72.2103 9.15007 71.8066 9.55371C71.4232 9.95736 71.1104 10.4417 70.8682 11.0068C70.626 11.5719 70.4342 12.1673 70.293 12.793C70.1719 13.3984 70.071 13.9131 69.9902 14.3369ZM87.791 17.6367C87.791 18.3431 87.5186 18.888 86.9736 19.2715C86.4287 19.6549 85.7526 19.8467 84.9453 19.8467C84.5013 19.8467 84.0876 19.7861 83.7041 19.665C83.3408 19.5238 83.0179 19.3522 82.7354 19.1504C82.473 18.9284 82.2611 18.6761 82.0996 18.3936C81.9583 18.0908 81.8877 17.778 81.8877 17.4551C81.8877 16.7689 82.1501 16.2139 82.6748 15.79C83.2197 15.3662 83.8454 15.1543 84.5518 15.1543C85.0563 15.1543 85.5104 15.235 85.9141 15.3965C86.3177 15.5378 86.6608 15.7295 86.9434 15.9717C87.2259 16.2139 87.4378 16.4863 87.5791 16.7891C87.7204 17.0716 87.791 17.3542 87.791 17.6367ZM68.9912 42.9756C68.9912 43.359 69.2233 43.7223 69.6875 44.0654C70.1719 44.3883 70.7269 44.57 71.3525 44.6104C71.07 43.8434 70.7773 43.2581 70.4746 42.8545C70.1921 42.4508 69.9095 42.249 69.627 42.249C69.4655 42.249 69.3141 42.3096 69.1729 42.4307C69.0518 42.5518 68.9912 42.7334 68.9912 42.9756ZM86.1865 17.6367C86.1865 17.4349 86.0957 17.2533 85.9141 17.0918C85.7324 16.9102 85.4701 16.8193 85.127 16.8193C84.5013 16.8193 84.1885 17.0514 84.1885 17.5156C84.1885 17.7376 84.2793 17.9294 84.4609 18.0908C84.6628 18.2321 84.9251 18.3027 85.248 18.3027C85.5508 18.3027 85.7829 18.2422 85.9443 18.1211C86.1058 17.9798 86.1865 17.8184 86.1865 17.6367ZM90.6367 34.1963C90.9395 33.4092 91.2624 32.6624 91.6055 31.9561C91.9688 31.2295 92.3522 30.5938 92.7559 30.0488C93.1595 29.5039 93.5934 29.07 94.0576 28.7471C94.542 28.404 95.0768 28.2324 95.6621 28.2324C95.9447 28.2324 96.2676 28.293 96.6309 28.4141C96.9941 28.5352 97.3372 28.7773 97.6602 29.1406C98.0033 29.5039 98.2858 30.0286 98.5078 30.7148C98.7298 31.401 98.8408 32.3092 98.8408 33.4395C98.8408 34.0247 98.8105 34.6706 98.75 35.377C98.6895 36.0833 98.6289 36.7796 98.5684 37.4658C99.194 36.1338 99.8096 35.0137 100.415 34.1055C101.041 33.1771 101.646 32.4404 102.231 31.8955C102.837 31.3304 103.432 30.9268 104.018 30.6846C104.603 30.4222 105.188 30.291 105.773 30.291C106.036 30.291 106.339 30.3516 106.682 30.4727C107.045 30.5938 107.378 30.8057 107.681 31.1084C108.004 31.4111 108.266 31.8249 108.468 32.3496C108.69 32.8743 108.801 33.5505 108.801 34.3779C108.801 35.0439 108.75 35.71 108.649 36.376C108.549 37.042 108.438 37.6878 108.316 38.3135C108.195 38.9391 108.084 39.5345 107.983 40.0996C107.882 40.6445 107.832 41.1289 107.832 41.5527C107.832 42.5618 108.014 43.3389 108.377 43.8838C108.74 44.4085 109.295 44.6709 110.042 44.6709C110.647 44.6709 111.223 44.4489 111.768 44.0049C112.312 43.5407 112.817 42.9554 113.281 42.249C113.766 41.5426 114.2 40.7656 114.583 39.918C114.987 39.0703 115.33 38.263 115.612 37.4961C115.915 36.709 116.167 36.0228 116.369 35.4375C116.571 34.832 116.712 34.4183 116.793 34.1963L117.974 34.499C117.691 35.2054 117.388 35.9925 117.065 36.8604C116.763 37.708 116.42 38.5658 116.036 39.4336C115.653 40.3014 115.239 41.1491 114.795 41.9766C114.351 42.7839 113.856 43.5003 113.312 44.126C112.767 44.7516 112.171 45.2562 111.525 45.6396C110.9 46.0231 110.203 46.2148 109.437 46.2148C108.791 46.2148 108.226 46.0938 107.741 45.8516C107.277 45.5892 106.883 45.2461 106.561 44.8223C106.238 44.3984 105.995 43.8939 105.834 43.3086C105.673 42.7233 105.592 42.0977 105.592 41.4316C105.592 40.6849 105.652 39.918 105.773 39.1309C105.915 38.3438 106.056 37.5869 106.197 36.8604C106.359 36.1338 106.5 35.4678 106.621 34.8623C106.762 34.2367 106.833 33.722 106.833 33.3184C106.833 32.6927 106.712 32.2285 106.47 31.9258C106.228 31.6029 105.895 31.4414 105.471 31.4414C104.885 31.4414 104.31 31.6533 103.745 32.0771C103.2 32.501 102.665 33.0661 102.141 33.7725C101.636 34.4788 101.152 35.2861 100.688 36.1943C100.223 37.1025 99.7894 38.041 99.3857 39.0098C99.0023 39.9583 98.639 40.9069 98.2959 41.8555C97.973 42.804 97.6904 43.6618 97.4482 44.4287C97.2061 45.1956 96.9941 45.8516 96.8125 46.3965C96.651 46.9212 96.54 47.2542 96.4795 47.3955L94.7236 47.0928C94.9658 45.902 95.1878 44.6507 95.3896 43.3389C95.5915 42.0068 95.763 40.7051 95.9043 39.4336C96.0658 38.1419 96.1868 36.9108 96.2676 35.7402C96.3685 34.5697 96.4189 33.5303 96.4189 32.6221C96.4189 31.391 96.3382 30.5635 96.1768 30.1396C96.0153 29.6956 95.7227 29.4736 95.2988 29.4736C94.9355 29.4736 94.5924 29.6149 94.2695 29.8975C93.9466 30.1598 93.6439 30.5231 93.3613 30.9873C93.099 31.4313 92.8366 31.9561 92.5742 32.5615C92.3118 33.167 92.0596 33.8128 91.8174 34.499L90.6367 34.1963ZM120.274 45.8516C119.003 45.8516 117.943 45.3369 117.096 44.3076C116.268 43.2783 115.854 41.7243 115.854 39.6455C115.854 38.2731 116.127 36.5273 116.672 34.4082C117.237 32.2689 118.206 29.8571 119.578 27.1729L120.698 27.4756C120.577 28.0003 120.375 28.7168 120.093 29.625C119.83 30.5332 119.558 31.5524 119.275 32.6826C119.013 33.7926 118.781 34.9632 118.579 36.1943C118.377 37.4053 118.276 38.5758 118.276 39.7061C118.276 40.6546 118.347 41.4316 118.488 42.0371C118.63 42.6224 118.811 43.0866 119.033 43.4297C119.275 43.7526 119.548 43.9746 119.851 44.0957C120.174 44.2168 120.517 44.2773 120.88 44.2773C121.465 44.2773 122.02 44.0957 122.545 43.7324C123.07 43.3691 123.564 42.8949 124.028 42.3096C124.513 41.7041 124.957 41.0381 125.36 40.3115C125.784 39.5648 126.158 38.818 126.48 38.0713C126.824 37.3245 127.126 36.6182 127.389 35.9521C127.651 35.266 127.863 34.6807 128.024 34.1963L129.205 34.499C128.983 35.1045 128.721 35.8109 128.418 36.6182C128.135 37.4053 127.802 38.2227 127.419 39.0703C127.056 39.918 126.642 40.7454 126.178 41.5527C125.714 42.36 125.189 43.0866 124.604 43.7324C124.018 44.3581 123.362 44.8727 122.636 45.2764C121.929 45.6598 121.142 45.8516 120.274 45.8516ZM125.179 17.6367C125.179 18.3431 124.906 18.888 124.361 19.2715C123.816 19.6549 123.13 19.8467 122.303 19.8467C121.879 19.8467 121.475 19.7861 121.092 19.665C120.729 19.5238 120.406 19.3522 120.123 19.1504C119.861 18.9284 119.649 18.6761 119.487 18.3936C119.346 18.0908 119.275 17.778 119.275 17.4551C119.275 16.7689 119.538 16.2139 120.062 15.79C120.607 15.3662 121.233 15.1543 121.939 15.1543C122.444 15.1543 122.898 15.235 123.302 15.3965C123.705 15.5378 124.049 15.7295 124.331 15.9717C124.614 16.2139 124.826 16.4863 124.967 16.7891C125.108 17.0716 125.179 17.3542 125.179 17.6367ZM123.544 17.6367C123.544 17.4349 123.453 17.2533 123.271 17.0918C123.11 16.9102 122.858 16.8193 122.515 16.8193C121.889 16.8193 121.576 17.0514 121.576 17.5156C121.576 17.7376 121.667 17.9294 121.849 18.0908C122.05 18.2321 122.313 18.3027 122.636 18.3027C122.938 18.3027 123.16 18.2422 123.302 18.1211C123.463 17.9798 123.544 17.8184 123.544 17.6367ZM121.667 23.5098C121.97 23.6914 122.333 23.9033 122.757 24.1455C123.181 24.3877 123.675 24.6198 124.24 24.8418C124.805 25.0638 125.431 25.2757 126.117 25.4775C126.824 25.6592 127.59 25.7904 128.418 25.8711C128.701 24.0547 129.064 22.4199 129.508 20.9668C129.952 19.4935 130.436 18.2422 130.961 17.2129C131.506 16.1634 132.061 15.3662 132.626 14.8213C133.211 14.2562 133.776 13.9736 134.321 13.9736C134.947 13.9736 135.391 14.2158 135.653 14.7002C135.916 15.1846 136.047 15.8304 136.047 16.6377C136.047 17.223 135.986 17.8688 135.865 18.5752C135.744 19.2816 135.583 20.0384 135.381 20.8457C135.179 21.6328 134.937 22.4603 134.654 23.3281C134.372 24.1758 134.079 25.0234 133.776 25.8711C135.795 25.6895 137.651 25.3564 139.347 24.8721C141.062 24.3877 142.546 23.8932 143.797 23.3887L144.372 24.5088C142.717 25.1344 141.002 25.6995 139.226 26.2041C137.45 26.6885 135.462 26.9912 133.262 27.1123C132.757 28.4242 132.232 29.6755 131.688 30.8662C131.163 32.0368 130.678 33.056 130.234 33.9238C130.255 35.054 130.315 36.2852 130.416 37.6172C130.537 38.929 130.759 40.1602 131.082 41.3105C131.425 42.4609 131.899 43.4196 132.505 44.1865C133.131 44.9535 133.948 45.3369 134.957 45.3369C135.805 45.3369 136.582 44.9837 137.288 44.2773C137.994 43.5508 138.64 42.6426 139.226 41.5527C139.831 40.4427 140.386 39.2318 140.891 37.9199C141.395 36.6081 141.869 35.3669 142.313 34.1963L143.494 34.499C143.212 35.2256 142.909 36.043 142.586 36.9512C142.263 37.8594 141.9 38.7878 141.496 39.7363C141.092 40.6647 140.648 41.5729 140.164 42.4609C139.68 43.3288 139.145 44.1159 138.56 44.8223C137.974 45.5085 137.328 46.0635 136.622 46.4873C135.916 46.891 135.149 47.0928 134.321 47.0928C133.433 47.0928 132.596 46.891 131.809 46.4873C131.042 46.0837 130.366 45.3672 129.78 44.3379C129.215 43.2884 128.761 41.8757 128.418 40.0996C128.095 38.3034 127.934 36.0228 127.934 33.2578C127.934 31.0378 128.055 28.9691 128.297 27.0518C126.561 26.8298 125.108 26.4867 123.938 26.0225C122.747 25.5381 121.828 25.0739 121.183 24.6299L121.667 23.5098ZM134.503 15.5781C134.321 15.5781 134.049 15.7598 133.686 16.123C133.322 16.4863 132.939 17.0817 132.535 17.9092C132.132 18.7165 131.738 19.7861 131.354 21.1182C130.991 22.43 130.699 24.0547 130.477 25.9922H131.052H132.535C132.898 24.9831 133.211 24.0042 133.474 23.0557C133.756 22.1071 133.998 21.2292 134.2 20.4219C134.402 19.5944 134.553 18.8577 134.654 18.2119C134.755 17.5459 134.806 17.001 134.806 16.5771C134.806 15.9111 134.705 15.5781 134.503 15.5781ZM130.234 31.502C130.577 30.7956 130.9 30.0892 131.203 29.3828C131.506 28.6562 131.799 27.9196 132.081 27.1729H130.961H130.355C130.315 27.8187 130.285 28.5049 130.265 29.2314C130.244 29.9378 130.234 30.6745 130.234 31.4414V31.502ZM153.272 48.3037C153.272 45.7204 153.394 43.3086 153.636 41.0684C153.01 42.1986 152.405 43.127 151.819 43.8535C151.234 44.5801 150.649 45.1553 150.063 45.5791C149.498 46.0029 148.923 46.2956 148.338 46.457C147.753 46.6185 147.157 46.6992 146.552 46.6992C146.067 46.6992 145.512 46.6286 144.887 46.4873C144.281 46.3258 143.706 46.013 143.161 45.5488C142.616 45.0846 142.152 44.4287 141.769 43.5811C141.405 42.7132 141.224 41.5628 141.224 40.1299C141.224 38.6364 141.405 37.2236 141.769 35.8916C142.132 34.5394 142.546 33.3486 143.01 32.3193C143.535 31.1084 144.14 29.9883 144.826 28.959L145.946 29.3525C145.906 29.4131 145.775 29.7865 145.553 30.4727C145.331 31.1387 145.089 31.9863 144.826 33.0156C144.584 34.0247 144.352 35.1449 144.13 36.376C143.928 37.5869 143.827 38.7575 143.827 39.8877C143.827 41.583 144.13 42.9352 144.735 43.9443C145.361 44.9535 146.239 45.458 147.369 45.458C147.975 45.458 148.57 45.2562 149.155 44.8525C149.741 44.4489 150.316 43.8939 150.881 43.1875C151.446 42.4609 152.011 41.6133 152.576 40.6445C153.141 39.6556 153.696 38.5758 154.241 37.4053C154.625 35.4072 155.079 33.6312 155.604 32.0771C156.148 30.5231 156.714 29.2012 157.299 28.1113L158.419 28.4141C158.015 30.1699 157.662 31.9157 157.359 33.6514C157.057 35.3669 156.794 37.042 156.572 38.6768C156.37 40.3115 156.209 41.8958 156.088 43.4297C155.967 44.9434 155.876 46.3662 155.815 47.6982C156.683 47.0726 157.491 46.3763 158.237 45.6094C159.004 44.8424 159.751 43.9342 160.478 42.8848C161.204 41.8353 161.921 40.6042 162.627 39.1914C163.354 37.7786 164.1 36.1136 164.867 34.1963L166.048 34.499C165.261 36.5374 164.494 38.3135 163.747 39.8271C163.021 41.3206 162.254 42.6426 161.446 43.793C160.659 44.9232 159.812 45.9323 158.903 46.8203C157.995 47.7083 156.966 48.556 155.815 49.3633C155.755 51.5833 155.553 53.541 155.21 55.2363C154.867 56.9316 154.443 58.4049 153.938 59.6562C153.434 60.9277 152.869 61.9873 152.243 62.835C151.618 63.6826 150.992 64.3688 150.366 64.8936C149.741 65.4183 149.125 65.7917 148.52 66.0137C147.934 66.2357 147.43 66.3467 147.006 66.3467C146.259 66.3467 145.583 66.1852 144.978 65.8623C144.392 65.5596 143.888 65.1559 143.464 64.6514C143.04 64.1468 142.717 63.5716 142.495 62.9258C142.273 62.2799 142.162 61.624 142.162 60.958C142.162 59.8076 142.435 58.7178 142.979 57.6885C143.545 56.6794 144.291 55.7207 145.22 54.8125C146.148 53.9043 147.208 53.0465 148.398 52.2393C149.609 51.4521 150.861 50.7054 152.152 49.999C152.536 49.7367 152.909 49.5247 153.272 49.3633V48.3037ZM147.066 65.1055C147.712 65.1055 148.368 64.8431 149.034 64.3184C149.72 63.8138 150.346 62.9964 150.911 61.8662C151.496 60.7562 151.991 59.3132 152.395 57.5371C152.818 55.7812 153.091 53.6621 153.212 51.1797C153.151 51.2201 153.081 51.2503 153 51.2705C152.939 51.3109 152.879 51.3613 152.818 51.4219C151.789 52.0677 150.77 52.7741 149.761 53.541C148.752 54.3281 147.843 55.1657 147.036 56.0537C146.249 56.9417 145.603 57.8701 145.099 58.8389C144.594 59.8278 144.342 60.847 144.342 61.8965C144.342 62.2598 144.402 62.6331 144.523 63.0166C144.665 63.4001 144.856 63.7432 145.099 64.0459C145.341 64.3688 145.623 64.6211 145.946 64.8027C146.289 65.0046 146.663 65.1055 147.066 65.1055ZM184.454 34.4385C184.474 34.4183 184.626 34.3376 184.908 34.1963C185.191 34.055 185.584 33.8835 186.089 33.6816C186.593 33.4596 187.209 33.2275 187.936 32.9854C188.662 32.7432 189.5 32.501 190.448 32.2588C190.347 30.7451 190.277 29.2314 190.236 27.7178C190.216 26.1839 190.206 24.7207 190.206 23.3281C190.206 20.4421 190.398 17.9092 190.781 15.7295C191.185 13.5296 191.7 11.6224 192.325 10.0078H192.204C189.984 10.3105 187.996 10.6234 186.24 10.9463C184.484 11.2692 182.92 11.693 181.548 12.2178C180.175 12.7223 178.975 13.3581 177.945 14.125C176.936 14.8919 176.068 15.8708 175.342 17.0615L174.222 16.6377C175.11 15.0635 176.21 13.8324 177.521 12.9443C178.833 12.0361 180.276 11.3197 181.851 10.7949C183.425 10.2702 185.1 9.87663 186.876 9.61426C188.652 9.35189 190.448 9.06934 192.265 8.7666C192.366 8.7666 192.466 8.75651 192.567 8.73633C192.668 8.71615 192.769 8.68587 192.87 8.64551C193.597 7.13184 194.374 5.88053 195.201 4.8916C196.049 3.88249 196.866 3.08529 197.653 2.5C198.461 1.89453 199.187 1.48079 199.833 1.25879C200.499 1.0166 201.014 0.895508 201.377 0.895508C202.144 0.895508 202.729 1.11751 203.133 1.56152C203.536 1.98535 203.738 2.43945 203.738 2.92383C203.738 3.83203 203.456 4.63932 202.891 5.3457C202.346 6.05208 201.649 6.66764 200.802 7.19238C199.954 7.71712 199.026 8.17122 198.017 8.55469C197.028 8.91797 196.079 9.21061 195.171 9.43262C194.666 10.805 194.273 12.3389 193.99 14.0342C193.708 15.7295 193.566 17.5459 193.566 19.4834C193.566 21.32 193.627 23.2575 193.748 25.2959C193.869 27.3141 194.01 29.3828 194.172 31.502C194.999 31.401 195.867 31.3203 196.775 31.2598C197.704 31.179 198.683 31.1387 199.712 31.1387C200.237 31.1387 200.923 31.1589 201.771 31.1992C202.638 31.2194 203.526 31.2497 204.435 31.29C205.343 31.3304 206.201 31.3708 207.008 31.4111C207.815 31.4313 208.441 31.4414 208.885 31.4414C209.632 31.4414 210.338 31.4313 211.004 31.4111C211.69 31.391 212.326 31.3607 212.911 31.3203C212.951 27.1426 213.507 23.1364 214.576 19.3018C215.646 15.4469 217.119 11.6426 218.996 7.88867L219.965 8.34277C219.945 8.36296 219.844 8.66569 219.662 9.25098C219.48 9.83626 219.248 10.6436 218.966 11.6729C218.703 12.682 218.411 13.8929 218.088 15.3057C217.765 16.6982 217.462 18.222 217.18 19.877C216.917 21.5319 216.695 23.2878 216.514 25.1445C216.332 27.0013 216.241 28.8984 216.241 30.8359V31.0781C217.129 30.9772 217.886 30.8662 218.512 30.7451C219.137 30.624 219.642 30.513 220.025 30.4121C220.429 30.291 220.722 30.2002 220.903 30.1396C221.085 30.0589 221.186 30.0186 221.206 30.0186L221.6 31.1387C221.499 31.1992 221.014 31.3607 220.146 31.623C219.299 31.8652 217.997 32.0973 216.241 32.3193C216.261 33.2477 216.302 34.277 216.362 35.4072C216.423 36.5374 216.493 37.6979 216.574 38.8887C216.675 40.0794 216.796 41.2803 216.938 42.4912C217.079 43.682 217.24 44.8223 217.422 45.9121C217.604 46.9818 217.815 47.9606 218.058 48.8486C218.3 49.7165 218.562 50.4329 218.845 50.998L217.937 51.4824C217.937 51.5026 217.815 51.321 217.573 50.9375C217.351 50.554 217.059 49.9889 216.695 49.2422C216.332 48.4954 215.938 47.5771 215.515 46.4873C215.091 45.3975 214.687 44.1562 214.304 42.7637C213.94 41.3509 213.628 39.7969 213.365 38.1016C213.103 36.4062 212.951 34.5798 212.911 32.6221C212.225 32.6826 211.508 32.723 210.762 32.7432C210.035 32.7432 209.258 32.7432 208.431 32.7432C207.946 32.7432 207.381 32.7331 206.735 32.7129C206.09 32.6725 205.413 32.6322 204.707 32.5918C204.021 32.5514 203.325 32.5212 202.618 32.501C201.932 32.4606 201.306 32.4404 200.741 32.4404C199.53 32.4404 198.39 32.4808 197.32 32.5615C196.251 32.6423 195.242 32.7533 194.293 32.8945C194.434 34.6302 194.545 36.3457 194.626 38.041C194.707 39.7161 194.747 41.361 194.747 42.9756C194.747 44.8929 194.656 46.7295 194.475 48.4854C194.293 50.2412 193.98 51.8861 193.536 53.4199C193.112 54.9538 192.537 56.3464 191.811 57.5977C191.084 58.849 190.176 59.9186 189.086 60.8066C187.996 61.7148 186.704 62.4111 185.211 62.8955C183.717 63.3799 181.992 63.6221 180.034 63.6221C177.895 63.6221 175.856 63.2083 173.919 62.3809C171.961 61.5534 170.286 60.3626 168.894 58.8086L169.741 57.9912C171.053 59.4242 172.597 60.5241 174.373 61.291C176.149 62.0579 178.016 62.4414 179.974 62.4414C181.528 62.4414 182.89 62.2194 184.061 61.7754C185.231 61.3516 186.23 60.7562 187.058 59.9893C187.905 59.2425 188.602 58.3545 189.146 57.3252C189.691 56.2959 190.115 55.1657 190.418 53.9346C190.741 52.7236 190.963 51.4421 191.084 50.0898C191.205 48.7578 191.266 47.4056 191.266 46.0332C191.266 45.5892 191.235 44.9535 191.175 44.126C191.134 43.2985 191.074 42.3398 190.993 41.25C190.933 40.1602 190.852 38.9694 190.751 37.6777C190.67 36.3659 190.59 35.0137 190.509 33.6211C189.58 33.8431 188.763 34.0752 188.057 34.3174C187.35 34.5394 186.765 34.7513 186.301 34.9531C185.756 35.1751 185.282 35.3971 184.878 35.6191L184.454 34.4385ZM201.559 2.07617C200.549 2.07617 199.53 2.60091 198.501 3.65039C197.472 4.69987 196.553 6.17318 195.746 8.07031C196.614 7.82812 197.462 7.54557 198.289 7.22266C199.117 6.89974 199.843 6.53646 200.469 6.13281C201.094 5.72917 201.599 5.27507 201.982 4.77051C202.366 4.26595 202.558 3.71094 202.558 3.10547C202.558 2.86328 202.467 2.63118 202.285 2.40918C202.104 2.18717 201.861 2.07617 201.559 2.07617ZM237.251 42.0068C236.625 43.137 236.02 44.0755 235.435 44.8223C234.849 45.569 234.264 46.1644 233.679 46.6084C233.114 47.0524 232.538 47.3652 231.953 47.5469C231.368 47.7285 230.762 47.8193 230.137 47.8193C229.632 47.8193 229.057 47.7386 228.411 47.5771C227.765 47.4157 227.15 47.0827 226.564 46.5781C225.999 46.0534 225.515 45.3066 225.111 44.3379C224.728 43.3691 224.536 42.0674 224.536 40.4326C224.536 38.7979 224.728 37.264 225.111 35.8311C225.495 34.3779 225.919 33.1064 226.383 32.0166C226.928 30.7653 227.553 29.6048 228.26 28.5352L229.38 28.8984C229.36 28.9186 229.289 29.1003 229.168 29.4434C229.067 29.7865 228.926 30.2507 228.744 30.8359C228.583 31.4212 228.401 32.0973 228.199 32.8643C228.018 33.6312 227.836 34.4486 227.654 35.3164C227.493 36.1641 227.352 37.0319 227.23 37.9199C227.13 38.8079 227.079 39.6657 227.079 40.4932C227.079 42.3903 227.412 43.8939 228.078 45.0039C228.764 46.0938 229.652 46.6387 230.742 46.6387C231.953 46.6387 233.124 45.9424 234.254 44.5498C235.384 43.137 236.464 41.1693 237.493 38.6465C237.675 37.4759 237.917 36.3861 238.22 35.377C238.543 34.3678 238.855 33.4697 239.158 32.6826C239.481 31.8955 239.774 31.2396 240.036 30.7148C240.299 30.1901 240.49 29.8369 240.611 29.6553L241.671 29.8975C241.348 31.4111 241.065 32.7734 240.823 33.9844C240.601 35.1751 240.42 36.2549 240.278 37.2236C240.137 38.1924 240.026 39.0602 239.945 39.8271C239.885 40.5739 239.854 41.25 239.854 41.8555C239.854 43.0664 240.046 44.0352 240.43 44.7617C240.813 45.4883 241.409 45.8516 242.216 45.8516C242.761 45.8516 243.285 45.6497 243.79 45.2461C244.295 44.8424 244.819 44.1764 245.364 43.248C245.909 42.3197 246.484 41.1188 247.09 39.6455C247.695 38.1722 248.382 36.3558 249.148 34.1963L250.329 34.499C249.986 35.3467 249.643 36.2549 249.3 37.2236C248.957 38.1924 248.583 39.1611 248.18 40.1299C247.796 41.0986 247.382 42.027 246.938 42.915C246.515 43.8031 246.03 44.5902 245.485 45.2764C244.961 45.9626 244.385 46.5075 243.76 46.9111C243.134 47.3148 242.438 47.5166 241.671 47.5166C240.944 47.5166 240.309 47.3753 239.764 47.0928C239.219 46.8102 238.755 46.4268 238.371 45.9424C238.008 45.458 237.725 44.8828 237.523 44.2168C237.342 43.5306 237.251 42.7939 237.251 42.0068ZM257.958 47.1533C258.664 47.1533 259.31 46.9818 259.896 46.6387C260.501 46.2956 261.036 45.8415 261.5 45.2764C260.652 45.0342 259.855 44.6608 259.108 44.1562C258.382 43.6315 257.736 42.9857 257.171 42.2188C256.606 41.4518 256.162 40.5739 255.839 39.585C255.516 38.5758 255.354 37.4759 255.354 36.2852C255.354 35.3366 255.476 34.4688 255.718 33.6816C255.96 32.8945 256.303 32.2285 256.747 31.6836C257.191 31.1185 257.716 30.6846 258.321 30.3818C258.927 30.0589 259.593 29.8975 260.319 29.8975C260.864 29.8975 261.439 30.0186 262.045 30.2607C262.65 30.5029 263.205 30.9167 263.71 31.502C264.215 32.0671 264.628 32.8239 264.951 33.7725C265.294 34.7008 265.466 35.8714 265.466 37.2842C265.466 38.4144 265.304 39.5951 264.981 40.8262C264.679 42.0371 264.235 43.1875 263.649 44.2773H263.861C264.891 44.2773 265.789 44.0452 266.556 43.5811C267.323 43.0967 268.009 42.4206 268.614 41.5527C269.24 40.6849 269.825 39.6354 270.37 38.4043C270.935 37.153 271.531 35.7503 272.156 34.1963L273.337 34.499C272.651 36.3154 271.985 37.9098 271.339 39.2822C270.693 40.6546 269.997 41.805 269.25 42.7334C268.503 43.6416 267.666 44.3379 266.737 44.8223C265.829 45.2865 264.759 45.5186 263.528 45.5186H262.923C262.237 46.4873 261.429 47.2744 260.501 47.8799C259.593 48.4652 258.563 48.7578 257.413 48.7578C255.92 48.7578 254.628 48.4147 253.538 47.7285C252.468 47.0221 251.58 46.0029 250.874 44.6709C250.168 43.3389 249.643 41.7142 249.3 39.7969C248.957 37.8796 248.785 35.6999 248.785 33.2578C248.785 29.181 248.997 25.639 249.421 22.6318C249.865 19.6247 250.45 17.1423 251.177 15.1846C251.903 13.2067 252.751 11.7536 253.72 10.8252C254.688 9.87663 255.708 9.41243 256.777 9.43262C257.544 9.47298 258.13 9.82617 258.533 10.4922C258.937 11.138 259.139 12.0866 259.139 13.3379C259.139 14.6901 258.947 16.1836 258.563 17.8184C258.18 19.4531 257.645 21.2191 256.959 23.1162C256.273 24.9932 255.455 26.9912 254.507 29.1104C253.558 31.2295 252.519 33.4395 251.389 35.7402C251.429 36.5677 251.5 37.4255 251.601 38.3135C251.722 39.1813 251.883 40.0391 252.085 40.8867C252.307 41.7344 252.579 42.5417 252.902 43.3086C253.225 44.0553 253.619 44.7214 254.083 45.3066C254.567 45.8717 255.122 46.3258 255.748 46.6689C256.394 46.9919 257.131 47.1533 257.958 47.1533ZM256.414 10.6738C255.688 10.6738 255.052 10.9967 254.507 11.6426C253.982 12.2682 253.528 13.1361 253.145 14.2461C252.781 15.3359 252.479 16.6175 252.236 18.0908C251.994 19.5439 251.802 21.098 251.661 22.7529C251.54 24.3877 251.449 26.083 251.389 27.8389C251.348 29.5947 251.328 31.3001 251.328 32.9551C252.297 30.9167 253.175 28.9489 253.962 27.0518C254.769 25.1344 255.465 23.3382 256.051 21.6631C256.636 19.9678 257.09 18.4137 257.413 17.001C257.736 15.5882 257.897 14.347 257.897 13.2773C257.897 12.9746 257.877 12.6719 257.837 12.3691C257.817 12.0664 257.746 11.7939 257.625 11.5518C257.524 11.2894 257.373 11.0775 257.171 10.916C256.989 10.7546 256.737 10.6738 256.414 10.6738ZM257.534 35.9824C257.534 36.9512 257.645 37.8796 257.867 38.7676C258.109 39.6354 258.432 40.4225 258.836 41.1289C259.26 41.8353 259.764 42.4508 260.35 42.9756C260.935 43.4801 261.581 43.8535 262.287 44.0957C262.61 43.5508 262.893 42.9857 263.135 42.4004C263.377 41.7949 263.579 41.1995 263.74 40.6143C263.902 40.0088 264.023 39.4336 264.104 38.8887C264.184 38.3236 264.225 37.8291 264.225 37.4053C264.225 36.4365 264.114 35.5687 263.892 34.8018C263.69 34.0146 263.407 33.3486 263.044 32.8037C262.701 32.2588 262.297 31.8451 261.833 31.5625C261.369 31.2799 260.884 31.1387 260.38 31.1387C259.916 31.1387 259.502 31.2699 259.139 31.5322C258.796 31.7946 258.503 32.1579 258.261 32.6221C258.019 33.0661 257.837 33.5807 257.716 34.166C257.595 34.7513 257.534 35.3568 257.534 35.9824Z" fill="#7B29DD"/>
</svg>
